<svg width="1600" height="900" viewBox="0 0 1600 900" fill="none" xmlns="http://www.w3.org/2000/svg">
  <rect width="1600" height="900" fill="#FFFFFF"/>
  <rect x="36" y="36" width="1528" height="828" stroke="#D8D8D8" stroke-width="2"/>
  <line x1="36" y1="124" x2="1564" y2="124" stroke="#D8D8D8" stroke-width="2"/>
  <line x1="516" y1="124" x2="516" y2="864" stroke="#D8D8D8" stroke-width="2"/>
  <line x1="36" y1="638" x2="1564" y2="638" stroke="#D8D8D8" stroke-width="2"/>
  <rect x="106" y="192" width="340" height="376" fill="#FAFAF9" stroke="#D8D8D8" stroke-width="2"/>
  <circle cx="276" cy="312" r="86" fill="#EFEFEF" stroke="#D8D8D8" stroke-width="2"/>
  <path d="M190 462C202 401 232 370 276 370C320 370 350 401 362 462" stroke="#1E1E1E" stroke-width="8" stroke-linecap="round"/>
  <text x="136" y="538" fill="#1E1E1E" font-family="'Helvetica Neue', Arial, sans-serif" font-size="26" font-weight="700">TETice</text>
  <text x="136" y="578" fill="#6B6B6B" font-family="'Helvetica Neue', Arial, sans-serif" font-size="20">Design / Frontend / Content</text>
  <text x="580" y="284" fill="#1E1E1E" font-family="Georgia, 'Times New Roman', serif" font-size="78" font-weight="700">About TETice</text>
  <text x="580" y="370" fill="#6E6E6E" font-family="'Helvetica Neue', Arial, sans-serif" font-size="26">A simple personal profile page in the same white-grid language.</text>
  <text x="580" y="412" fill="#6E6E6E" font-family="'Helvetica Neue', Arial, sans-serif" font-size="26">Frontend, content systems and long-term blog maintenance.</text>
  <rect x="580" y="690" width="268" height="100" fill="#FBFBFB" stroke="#D8D8D8" stroke-width="2"/>
  <rect x="888" y="690" width="268" height="100" fill="#FBFBFB" stroke="#D8D8D8" stroke-width="2"/>
  <rect x="1196" y="690" width="268" height="100" fill="#FBFBFB" stroke="#D8D8D8" stroke-width="2"/>
  <text x="608" y="748" fill="#1E1E1E" font-family="'Helvetica Neue', Arial, sans-serif" font-size="22">PROFILE</text>
  <text x="916" y="748" fill="#1E1E1E" font-family="'Helvetica Neue', Arial, sans-serif" font-size="22">PROJECTS</text>
  <text x="1224" y="748" fill="#1E1E1E" font-family="'Helvetica Neue', Arial, sans-serif" font-size="22">CONTACT</text>
</svg>
