<svg width="1600" height="900" viewBox="0 0 1600 900" fill="none" xmlns="http://www.w3.org/2000/svg">
  <rect width="1600" height="900" fill="#FFFFFF"/>
  <rect x="36" y="36" width="1528" height="828" stroke="#D8D8D8" stroke-width="2"/>
  <line x1="36" y1="124" x2="1564" y2="124" stroke="#D8D8D8" stroke-width="2"/>
  <line x1="562" y1="124" x2="562" y2="864" stroke="#D8D8D8" stroke-width="2"/>
  <line x1="36" y1="600" x2="1564" y2="600" stroke="#D8D8D8" stroke-width="2"/>
  <rect x="98" y="190" width="404" height="350" fill="#F7F7F7" stroke="#D8D8D8" stroke-width="2"/>
  <circle cx="300" cy="330" r="88" fill="#EBEBEB" stroke="#D8D8D8" stroke-width="2"/>
  <path d="M208 474C220 410 251 378 300 378C349 378 380 410 392 474" stroke="#1E1E1E" stroke-width="8" stroke-linecap="round"/>
  <rect x="622" y="188" width="874" height="124" fill="#FFFFFF"/>
  <text x="650" y="272" fill="#1E1E1E" font-family="Georgia, 'Times New Roman', serif" font-size="72" font-weight="700">About TETice</text>
  <text x="650" y="372" fill="#6E6E6E" font-family="'Helvetica Neue', Arial, sans-serif" font-size="26">Design, frontend implementation and content systems.</text>
  <text x="650" y="414" fill="#6E6E6E" font-family="'Helvetica Neue', Arial, sans-serif" font-size="26">A simple profile cover in the same white-grid language.</text>
  <rect x="622" y="650" width="388" height="120" fill="#FBFBFB" stroke="#D8D8D8" stroke-width="2"/>
  <rect x="1052" y="650" width="388" height="120" fill="#FBFBFB" stroke="#D8D8D8" stroke-width="2"/>
  <text x="650" y="724" fill="#1E1E1E" font-family="'Helvetica Neue', Arial, sans-serif" font-size="22">PROFILE / PROJECTS</text>
  <text x="1080" y="724" fill="#1E1E1E" font-family="'Helvetica Neue', Arial, sans-serif" font-size="22">LINKS / CONTACT</text>
</svg>
