<svg width="1200" height="900" viewBox="0 0 1200 900" fill="none" xmlns="http://www.w3.org/2000/svg">
  <rect width="1200" height="900" fill="#D7E6E1"/>
  <circle cx="932" cy="172" r="92" fill="#FFF5DD"/>
  <path d="M0 566C142 514 278 490 408 490C560 490 704 522 866 522C994 522 1104 496 1200 454V900H0V566Z" fill="#7EA4A0"/>
  <path d="M0 652C124 612 278 600 432 600C610 600 736 676 898 676C1002 676 1100 646 1200 598V900H0V652Z" fill="#355D57"/>
  <path d="M0 614H1200V720C1042 676 898 650 728 650C540 650 370 684 188 720L0 756V614Z" fill="#EFF6F4" fill-opacity="0.72"/>
</svg>
